<?xml version="1.0" standalone="no"?>
<!DOCTYPE svg PUBLIC "-//W3C//DTD SVG 20010904//EN"
 "http://www.w3.org/TR/2001/REC-SVG-20010904/DTD/svg10.dtd">
<svg version="1.0" xmlns="http://www.w3.org/2000/svg"
 width="1080.000000pt" height="1080.000000pt" viewBox="0 0 1080.000000 1080.000000"
 preserveAspectRatio="xMidYMid meet">

<g transform="translate(0.000000,1080.000000) scale(0.100000,-0.100000)"
fill="#000000" stroke="none">
<path d="M1010 7214 c-117 -68 -133 -85 -128 -139 3 -22 8 -47 12 -56 5 -13
-6 -24 -47 -47 -76 -43 -102 -82 -102 -152 0 -54 7 -67 379 -710 208 -360 393
-670 412 -689 29 -30 41 -35 91 -39 56 -3 61 -2 180 67 68 39 128 71 134 71 6
0 62 -32 124 -70 62 -39 129 -73 148 -77 48 -7 98 11 134 50 27 30 780 1222
817 1294 39 77 11 155 -75 214 -33 22 -59 41 -59 43 0 2 6 19 14 37 30 71 12
94 -144 189 -97 59 -126 61 -172 10 -15 -16 -29 -30 -32 -30 -2 0 -30 16 -62
35 -69 42 -130 47 -182 15 -35 -22 -47 -39 -317 -468 -143 -229 -180 -281
-190 -270 -6 7 -101 168 -211 358 -109 190 -210 357 -225 372 -30 31 -96 51
-136 42 -15 -3 -52 -20 -82 -36 -48 -26 -55 -28 -63 -14 -5 9 -19 25 -30 36
-37 34 -82 25 -188 -36z m160 -25 c7 -11 10 -22 8 -24 -2 -1 -52 -31 -111 -65
-88 -51 -111 -61 -118 -49 -21 32 -4 54 81 106 93 57 123 64 140 32z m278 2
c9 -5 -51 -45 -185 -122 -108 -63 -201 -115 -205 -117 -4 -2 -8 10 -8 27 0 35
5 39 195 150 118 68 169 84 203 62z m1442 -55 c36 -22 73 -46 83 -54 19 -16
23 -57 7 -67 -8 -5 -139 69 -222 126 -4 3 1 15 12 27 24 25 30 23 120 -32z
m-1180 -362 c113 -196 205 -358 205 -359 0 -1 -38 -64 -85 -138 -61 -98 -87
-131 -91 -119 -4 9 -10 89 -14 177 -4 88 -12 166 -17 173 -17 20 -33 15 -113
-34 -42 -25 -78 -45 -79 -43 -2 2 -13 72 -26 154 -12 83 -24 153 -27 158 -2 4
-11 7 -20 7 -17 0 -178 -89 -213 -118 l-21 -17 78 -235 c56 -167 83 -236 94
-238 9 -2 43 13 76 32 32 19 65 36 72 38 8 2 31 -43 61 -117 l48 -120 -26 -45
c-31 -53 -34 -119 -8 -168 10 -20 43 -50 84 -76 37 -23 96 -61 131 -83 l64
-40 -104 -62 c-112 -66 -159 -76 -197 -43 -26 22 -756 1286 -745 1289 4 2 154
89 333 193 179 104 327 189 330 189 3 0 97 -160 210 -355z m1102 107 c177
-111 275 -177 271 -185 -4 -6 -179 -285 -390 -621 -402 -641 -409 -651 -473
-642 -25 3 -506 302 -548 341 -19 17 -23 29 -20 66 3 39 53 123 392 662 l388
617 52 -32 c28 -18 176 -111 328 -206z m112 77 c72 -46 143 -94 158 -108 27
-24 51 -87 31 -79 -5 2 -96 58 -202 124 -167 105 -189 122 -174 133 30 22 54
13 187 -70z m-1486 -439 c12 -82 24 -154 27 -160 11 -17 40 -8 115 36 41 24
76 41 77 37 4 -17 23 -375 20 -378 -2 -2 -25 50 -51 116 -26 66 -53 121 -59
121 -25 3 -39 -3 -97 -38 -33 -20 -63 -34 -65 -31 -11 10 -124 373 -117 376 4
2 32 18 62 37 30 18 58 34 61 34 3 1 15 -67 27 -150z"/>
<path d="M2384 6608 c-182 -187 -236 -247 -229 -259 4 -6 38 -31 77 -55 l70
-45 -48 -57 c-27 -31 -85 -100 -129 -152 -116 -137 -109 -128 -95 -145 7 -8
18 -15 25 -15 24 0 580 346 583 363 2 11 -21 32 -77 68 -45 28 -81 54 -81 58
0 3 57 46 125 95 69 49 125 95 125 101 0 7 -8 19 -17 27 -28 25 -196 128 -208
128 -6 0 -60 -51 -121 -112z m199 -2 c31 -20 57 -38 57 -39 0 -1 -56 -43 -125
-92 -96 -69 -125 -95 -123 -110 2 -12 32 -39 80 -70 l77 -51 -147 -89 c-81
-49 -158 -96 -172 -104 -29 -18 -36 -27 79 111 44 53 71 94 68 103 -4 8 -35
33 -72 55 -36 23 -65 44 -65 47 0 13 266 281 276 278 6 -2 36 -19 67 -39z"/>
<path d="M3610 6365 l0 -705 298 0 c333 0 392 8 493 61 120 64 190 178 190
309 0 83 -6 111 -44 183 -37 71 -102 130 -170 155 l-51 19 50 26 c65 33 131
98 157 155 18 38 22 66 22 147 0 89 -3 106 -27 150 -30 58 -97 124 -157 154
-85 44 -148 51 -463 51 l-298 0 0 -705z m589 544 c116 -25 176 -107 169 -234
-4 -95 -34 -142 -115 -182 -57 -28 -61 -28 -260 -32 l-203 -3 0 231 0 231 180
0 c98 0 202 -5 229 -11z m11 -610 c149 -32 231 -172 189 -322 -14 -53 -69
-110 -132 -138 -48 -21 -68 -24 -264 -27 l-213 -4 0 251 0 251 185 0 c101 0
207 -5 235 -11z"/>
<path d="M6260 6910 l0 -140 -70 0 -70 0 0 -75 0 -75 70 0 70 0 0 -363 c0
-390 4 -425 53 -498 13 -20 47 -46 81 -64 56 -28 67 -30 197 -33 l139 -4 0 81
0 81 -100 0 c-68 0 -110 5 -129 14 -54 28 -56 40 -59 429 l-3 357 146 0 145 0
0 75 0 75 -145 0 -145 0 0 140 0 140 -90 0 -90 0 0 -140z"/>
<path d="M7000 6910 l0 -140 -75 0 -75 0 0 -75 0 -75 75 0 75 0 0 -368 c0
-406 4 -442 60 -506 53 -60 116 -79 273 -84 l137 -4 0 81 0 81 -100 0 c-72 0
-110 4 -131 16 -56 29 -59 48 -59 434 l0 350 145 0 145 0 0 75 0 75 -145 0
-145 0 0 140 0 140 -90 0 -90 0 0 -140z"/>
<path d="M5191 6774 c-90 -19 -162 -57 -231 -121 -73 -67 -121 -144 -151 -243
-34 -111 -32 -283 5 -397 65 -200 218 -334 419 -365 162 -25 312 24 425 139
l62 63 0 -95 0 -95 95 0 95 0 0 555 0 555 -95 0 -95 0 0 -96 0 -97 -29 37
c-111 140 -307 202 -500 160z m305 -178 c144 -66 224 -199 224 -375 0 -142
-41 -244 -131 -325 -69 -62 -143 -89 -244 -89 -147 0 -263 70 -325 196 -124
255 -9 555 237 617 64 16 176 5 239 -24z"/>
<path d="M8063 6779 c-210 -35 -370 -186 -419 -396 -20 -89 -20 -253 1 -334 9
-35 33 -95 53 -134 118 -224 398 -327 665 -245 121 38 230 130 286 244 17 35
31 69 31 75 0 7 -32 11 -98 11 l-99 0 -18 -39 c-23 -52 -79 -105 -140 -133
-42 -19 -67 -23 -150 -23 -93 0 -105 2 -167 33 -108 53 -180 154 -190 267 l-3
40 442 3 441 2 7 49 c8 58 -1 144 -22 221 -71 258 -329 408 -620 359z m269
-183 c100 -48 162 -135 183 -258 l6 -38 -352 0 -352 0 6 43 c13 93 75 190 154
238 61 38 112 49 208 46 73 -3 100 -8 147 -31z"/>
<path d="M9375 6776 c-77 -19 -127 -50 -183 -111 l-52 -57 0 81 0 81 -95 0
-95 0 0 -555 0 -555 95 0 95 0 0 348 c0 382 4 413 59 489 42 58 121 95 217
101 l74 5 0 93 0 94 -32 -1 c-18 0 -55 -6 -83 -13z"/>
<path d="M9580 6763 c0 -3 100 -250 221 -549 l221 -542 -106 -259 c-58 -143
-106 -262 -106 -266 0 -4 42 -7 93 -7 l92 0 330 806 c182 443 332 810 333 815
2 5 -39 9 -91 9 -81 0 -96 -3 -102 -17 -3 -10 -79 -207 -167 -438 -88 -231
-164 -423 -167 -428 -4 -4 -58 124 -121 285 -62 161 -139 362 -172 446 l-59
152 -100 0 c-54 0 -99 -3 -99 -7z"/>
</g>
</svg>
